<svg xmlns="http://www.w3.org/2000/svg" viewBox="0 0 516.52 792.72"><defs><style>.cls-1{fill:#ea6060;}.cls-2{fill:#f66;}.cls-3{fill:#5f5f60;}</style></defs><title>Fichier 1</title><g id="Calque_2" data-name="Calque 2"><g id="Laag_1" data-name="Laag 1"><path class="cls-1" d="M357.26,60.1C403.83,73.73,450.33,87.62,497,100.9c22.11,6.3,24.78,21.18,11.3,35-21.56,22.14-47.06,40.39-70,61.24-11.84,10.76-24.47,22.15-31.89,35.88-8.59,15.91-10.7,35.18-17.65,52.17-24.49,60-33.83,113.75,14.79,172,36.19,43.37,31.79,97.31,10.87,139.12L230.35,542.27l-23.6-15.5c8.09-24.84,16.24-49.65,24.25-74.51Q294.17,256.2,357.26,60.1Z"/><path class="cls-2" d="M357.26,60.1Q294.13,256.18,231,452.26c-8,24.86-16.16,49.67-24.25,74.51l-25.62,1.41L0,462.71C16.28,401,57.41,360.45,115,344.89c45.84-12.37,65.06-37.65,73.11-79.45,2.23-11.57,6.77-22.72,10.56-34,15.94-47.18,32.18-92.07-2-141.3C183.21,70.77,188.55,38.3,183.9,0Z"/><path class="cls-3" d="M181.13,528.18l25.62-1.41,23.6,15.5C202.54,617.15,175,692.12,146.54,766.76c-2.93,7.68-11,13.37-21.93,26C111.68,692.38,158.93,612.88,181.13,528.18Z"/></g></g></svg>