<?xml version="1.0" encoding="utf-8"?>
<!-- Generator: Adobe Illustrator 22.0.1, SVG Export Plug-In . SVG Version: 6.00 Build 0)  -->
<svg version="1.1" id="Calque_1" xmlns="http://www.w3.org/2000/svg" xmlns:xlink="http://www.w3.org/1999/xlink" x="0px" y="0px"
	 viewBox="0 0 489.5 751.2" style="enable-background:new 0 0 489.5 751.2;" xml:space="preserve">
<style type="text/css">
	.st0{fill:#74AB53;}
	.st1{fill:#81BB5A;}
	.st2{fill:#5F5F60;}
</style>
<title>Fichier 3</title>
<g id="Calque_2_1_">
	<g id="Laag_1">
		<path class="st0" d="M338.6,57c44.1,12.9,88.2,26,132.4,38.6c21,6,23.5,20.1,10.7,33.2c-20.4,21-44.6,38.3-66.4,58
			c-11.2,10.2-23.2,21-30.2,34c-8.1,15.1-10.1,33.4-16.7,49.5c-23.2,56.8-32.1,107.8,14,163c34.3,41.1,30.1,92.2,10.3,131.8
			c-57.9-17-116-34.1-174.4-51.3l-22.4-14.7c7.7-23.5,15.4-47,23-70.6C258.8,304.7,298.7,180.9,338.6,57z"/>
		<path class="st1" d="M338.6,57c-39.9,123.8-79.8,247.7-119.6,371.6c-7.6,23.6-15.3,47.1-23,70.6l-24.3,1.3L0,438.5
			c15.4-58.4,54.4-96.9,109-111.6c43.4-11.7,61.6-35.7,69.3-75.3c2.1-11,6.4-21.5,10-32.2c15.1-44.7,30.5-87.3-1.9-133.9
			c-12.8-18.4-7.7-49.2-12.1-85.5L338.6,57z"/>
		<path class="st2" d="M171.6,500.5l24.3-1.3l22.4,14.7c-26.4,71-52.5,142-79.4,212.7c-2.8,7.3-10.5,12.7-20.8,24.6
			C105.8,656.2,150.6,580.8,171.6,500.5z"/>
	</g>
</g>
</svg>
