<svg xmlns="http://www.w3.org/2000/svg" viewBox="0 0 489.49 751.24"><defs><style>.cls-1{fill:#4a9add;}.cls-2{fill:#4e9efe;}.cls-3{fill:#5f5f60;}</style></defs><title>Fichier 3</title><g id="Calque_2" data-name="Calque 2"><g id="Laag_1" data-name="Laag 1"><path class="cls-1" d="M338.56,57C382.7,69.88,426.77,83,471,95.62c21,6,23.48,20.07,10.71,33.19-20.43,21-44.6,38.27-66.36,58-11.22,10.19-23.19,21-30.21,34C377,235.92,375,254.18,368.41,270.28c-23.21,56.82-32.07,107.8,14,163,34.29,41.11,30.13,92.22,10.3,131.84q-86.85-25.53-174.43-51.25l-22.36-14.7c7.67-23.53,15.39-47.05,23-70.61Q278.76,242.79,338.56,57Z"/><path class="cls-2" d="M338.56,57Q278.74,242.77,218.91,428.59c-7.59,23.56-15.31,47.08-23,70.61l-24.28,1.34L0,438.49c15.43-58.44,54.4-96.91,109-111.64,43.44-11.73,61.65-35.69,69.28-75.3,2.12-11,6.42-21.53,10-32.18,15.11-44.72,30.5-87.26-1.89-133.91C173.62,67.07,178.68,36.29,174.27,0Z"/><path class="cls-3" d="M171.65,500.54l24.28-1.34,22.36,14.7c-26.35,71-52.48,142-79.42,212.74-2.77,7.27-10.47,12.67-20.78,24.6C105.84,656.15,150.62,580.81,171.65,500.54Z"/></g></g></svg>